<?xml version="1.0" standalone="no"?>
<!DOCTYPE svg PUBLIC "-//W3C//DTD SVG 20010904//EN"
 "http://www.w3.org/TR/2001/REC-SVG-20010904/DTD/svg10.dtd">
<svg version="1.0" xmlns="http://www.w3.org/2000/svg"
 width="832.000000pt" height="1248.000000pt" viewBox="0 0 832.000000 1248.000000"
 preserveAspectRatio="xMidYMid meet">

<g transform="translate(0.000000,1248.000000) scale(0.100000,-0.100000)"
fill="#000000" stroke="none">
<path d="M5720 7814 c-144 -24 -239 -62 -296 -121 -22 -21 -73 -55 -116 -76
-100 -49 -164 -118 -208 -224 -18 -43 -48 -96 -67 -118 -103 -120 -121 -295
-43 -418 33 -52 117 -107 165 -107 41 0 99 29 169 84 89 70 94 70 176 -8 39
-36 74 -66 79 -66 27 0 10 35 -56 118 l-74 92 -128 0 c-116 0 -130 -2 -146
-20 -24 -27 -55 -22 -74 12 -14 24 -14 28 3 47 22 25 49 27 66 6 10 -12 40
-15 154 -15 l142 0 74 -91 c41 -51 74 -97 73 -103 -1 -6 -5 -24 -9 -40 l-7
-29 122 5 c66 2 122 0 123 -4 6 -32 3 -33 -127 -30 l-130 4 -54 36 c-91 63
-96 65 -122 59 -13 -4 -55 -30 -94 -59 -68 -51 -70 -55 -73 -100 -3 -44 0 -51
42 -96 84 -89 203 -131 322 -112 65 10 158 42 182 62 7 6 14 9 16 7 2 -2 5
-287 7 -634 2 -509 5 -634 16 -653 15 -25 22 -131 27 -437 l4 -200 61 1 c77 1
88 10 73 62 -8 25 -12 118 -12 250 l0 212 -59 64 -58 65 -7 173 c-3 95 -4 384
-1 642 l5 469 77 70 c43 39 129 121 192 184 l114 113 188 0 c178 0 189 1 199
20 15 27 36 25 56 -5 29 -44 8 -54 -104 -48 -54 3 -150 2 -214 -2 l-116 -7
-161 -176 -160 -177 -1 -552 0 -552 55 -59 55 -60 0 -117 c0 -106 2 -116 18
-113 15 3 17 18 20 123 l2 120 -55 62 -55 61 0 535 0 534 111 122 c61 66 119
126 129 131 11 6 101 10 207 10 176 0 191 2 238 24 107 49 177 170 179 306 1
103 -13 140 -99 271 -41 62 -75 122 -75 134 0 33 -20 85 -33 86 -7 1 -22 0
-34 -1 -12 -1 -42 12 -65 28 -24 16 -62 39 -85 51 -23 12 -65 41 -93 66 -63
56 -74 62 -167 85 -136 34 -219 23 -257 -34 -12 -20 -16 -50 -16 -141 l0 -115
68 0 c40 0 74 -5 83 -12 9 -7 57 -66 109 -130 l93 -118 59 0 c55 0 59 2 69 27
7 19 7 35 -1 52 -10 21 -15 23 -55 17 l-45 -6 0 65 0 64 -32 3 c-27 2 -44 17
-100 88 -38 47 -79 89 -93 93 -35 12 -44 53 -17 80 18 18 25 19 48 9 22 -11
26 -17 22 -47 -4 -31 4 -45 58 -112 l62 -76 153 1 c126 1 154 4 161 17 13 21
55 19 68 -4 18 -34 12 -61 -17 -72 -21 -8 -30 -6 -49 12 -22 20 -29 21 -128
14 l-106 -7 0 -44 c0 -43 1 -44 33 -44 45 0 67 -26 67 -79 0 -73 -9 -81 -98
-80 l-77 1 -98 124 -98 124 -143 0 -144 0 -43 60 c-25 34 -52 60 -62 60 -9 0
-25 9 -34 20 -13 15 -30 20 -64 20 -45 0 -49 -2 -103 -66 l-56 -66 0 -99 0
-99 -34 -17 c-37 -17 -66 -12 -66 11 0 9 12 16 33 18 l32 3 3 94 3 95 56 69
c62 75 90 92 141 83 25 -4 37 0 50 15 33 38 87 15 80 -35 -2 -18 10 -42 40
-81 43 -55 45 -56 90 -53 l47 3 3 85 c4 110 -5 184 -26 210 -17 21 -82 32
-132 24z m563 -171 c3 -5 1 -19 -5 -32 -8 -23 -10 -23 -25 -9 -9 9 -13 24 -10
32 7 16 32 22 40 9z m-689 -209 c21 -21 20 -46 -3 -73 -14 -16 -18 -31 -14
-61 5 -36 1 -44 -57 -114 l-63 -76 -97 0 -97 0 -52 70 c-30 40 -60 70 -70 70
-43 0 -56 58 -19 84 30 22 63 0 63 -41 0 -18 16 -51 45 -90 l45 -62 81 -1 82
0 56 64 c50 57 56 69 56 109 0 27 -6 49 -15 57 -28 23 -7 80 30 80 7 0 21 -7
29 -16z m347 -86 c55 -16 113 -69 143 -130 21 -42 26 -66 26 -125 l0 -73 173
0 c161 0 175 1 192 20 22 24 42 25 67 3 22 -20 23 -41 1 -65 -20 -22 -46 -23
-63 -3 -10 12 -44 15 -191 15 l-179 0 -19 -39 c-82 -160 -265 -201 -389 -87
-56 50 -87 160 -71 255 28 173 164 273 310 229z m697 -68 c5 -41 35 -91 65
-106 22 -12 27 -21 25 -41 -7 -59 -72 -55 -74 5 0 42 -34 100 -58 104 -43 6
-32 71 11 66 21 -2 29 -9 31 -28z m-1544 -132 c8 -14 7 -21 -6 -34 -30 -30
-75 9 -48 42 16 18 39 15 54 -8z m368 -491 c8 -9 29 -12 66 -9 43 4 54 2 50
-9 -3 -9 -23 -15 -51 -17 -34 -2 -50 -8 -57 -23 -21 -38 -80 -18 -80 28 0 35
47 56 72 30z m449 -1530 l27 -32 6 -248 6 -248 -28 3 -27 3 -7 195 c-3 107 -9
232 -13 278 -4 45 -3 82 1 81 5 0 21 -15 35 -32z"/>
<path d="M3185 6764 c-224 -46 -358 -117 -465 -244 -164 -198 -230 -449 -217
-830 11 -317 72 -503 232 -708 124 -159 282 -249 507 -288 223 -39 638 15 803
104 l50 27 -4 505 c-2 278 -5 507 -6 508 -2 2 -171 1 -375 -4 l-372 -7 6 -96
c4 -53 9 -127 12 -164 l6 -68 204 7 204 7 0 -215 0 -215 -75 -22 c-280 -84
-481 -61 -618 68 -184 173 -271 553 -203 881 34 158 132 298 248 353 96 45
147 49 552 46 l376 -4 0 183 0 182 -422 -1 c-233 -1 -432 -3 -443 -5z"/>
<path d="M740 5715 l0 -1046 473 4 c535 4 542 5 707 84 205 98 337 290 405
588 61 267 59 602 -5 835 -28 99 -98 241 -155 312 -88 112 -223 197 -380 240
-76 21 -102 22 -562 26 l-483 3 0 -1046z m891 675 c178 -33 299 -163 361 -385
19 -71 22 -105 22 -305 1 -205 -1 -232 -22 -303 -52 -182 -149 -294 -292 -342
-48 -17 -91 -19 -337 -20 l-283 -1 0 473 0 473 -42 -5 c-104 -11 -168 -14
-168 -9 0 9 183 408 193 422 12 15 486 17 568 2z"/>
<path d="M6330 6655 c-20 -21 -33 -25 -82 -25 -54 0 -60 -2 -90 -37 -18 -20
-52 -58 -75 -84 l-43 -46 0 -502 0 -503 36 -44 36 -43 -1 -253 c-2 -230 -4
-254 -20 -273 -26 -28 -33 -58 -21 -90 22 -58 74 -71 115 -30 36 35 34 83 -5
120 l-30 29 0 261 0 261 -35 34 -35 34 0 495 0 496 63 68 c59 63 65 67 107 67
38 0 49 -5 71 -31 30 -37 71 -42 99 -13 45 46 16 134 -43 134 -13 0 -34 -11
-47 -25z m73 -36 c15 -24 1 -49 -27 -49 -29 0 -44 33 -25 56 15 18 38 15 52
-7z m-249 -1805 c31 -12 13 -74 -21 -74 -21 0 -35 37 -23 60 11 21 19 24 44
14z"/>
<path d="M5705 6417 c-3 -7 -4 -358 -3 -781 l3 -769 -27 -28 c-55 -55 -27
-139 46 -139 73 0 101 98 41 146 -25 20 -26 23 -23 120 2 54 2 406 1 782 -3
605 -5 682 -18 682 -9 0 -18 -6 -20 -13z m40 -1613 c19 -19 16 -43 -6 -57 -37
-23 -69 29 -37 61 16 16 23 15 43 -4z"/>
<path d="M6430 6271 l-75 -6 0 -775 0 -775 95 -3 c52 -2 123 0 158 3 l62 7 0
564 0 565 75 35 c106 49 185 67 301 68 93 1 103 -1 141 -26 22 -14 48 -43 59
-65 18 -36 19 -65 17 -600 l-2 -563 158 0 158 0 5 68 c11 132 9 1046 -2 1122
-20 139 -101 265 -208 323 -148 80 -360 76 -620 -14 -64 -22 -121 -41 -127
-42 -5 -1 -13 26 -18 61 l-9 62 -46 -2 c-26 -1 -81 -4 -122 -7z"/>
<path d="M4760 6260 c-140 -4 -290 -8 -332 -9 l-78 -1 0 -151 0 -150 360 7
c198 4 360 4 360 1 0 -3 -80 -108 -177 -234 -98 -126 -265 -343 -370 -484
l-193 -255 0 -90 c0 -106 21 -164 66 -182 21 -9 161 -12 529 -10 l500 3 3 153
3 152 -78 0 c-43 0 -199 -5 -347 -11 -147 -5 -270 -8 -273 -6 -2 3 72 105 165
228 92 123 261 350 374 505 l205 281 -20 131 -21 132 -210 -2 c-116 -1 -326
-5 -466 -8z"/>
</g>
</svg>
